<?xml version="1.0" standalone="no"?>
<!DOCTYPE svg PUBLIC "-//W3C//DTD SVG 20010904//EN"
 "http://www.w3.org/TR/2001/REC-SVG-20010904/DTD/svg10.dtd">
<svg version="1.0" xmlns="http://www.w3.org/2000/svg"
 width="900.000000pt" height="900.000000pt" viewBox="0 0 900.000000 900.000000"
 preserveAspectRatio="xMidYMid meet">

<g transform="translate(0.000000,900.000000) scale(0.100000,-0.100000)"
fill="#000000" stroke="none">
<path d="M2310 7549 c-156 -18 -331 -84 -466 -177 -231 -158 -390 -413 -434
-692 -8 -56 -10 -633 -8 -2230 l3 -2155 22 -77 c117 -409 425 -693 833 -768
97 -18 4375 -18 4480 0 421 71 754 394 841 817 19 89 19 166 17 2265 l-3 2173
-28 90 c-130 422 -461 705 -882 754 -101 12 -4272 12 -4375 0z m2005 -1300
c14 -14 4 -109 -109 -1045 -69 -566 -141 -1164 -161 -1329 -41 -347 -46 -372
-81 -385 -14 -6 -144 -10 -290 -10 -250 0 -265 1 -284 20 -14 14 -18 28 -14
47 4 22 324 2688 324 2700 0 15 80 19 321 19 239 -1 280 -3 294 -17z m1293 -2
c6 -5 12 -22 12 -38 0 -67 -352 -2830 -371 -2909 -11 -47 -40 -128 -66 -180
-38 -79 -59 -108 -127 -175 -128 -127 -260 -181 -499 -206 -118 -13 -437 -6
-515 10 -74 15 -77 23 -63 153 7 62 17 131 21 153 15 66 28 71 211 79 89 4
187 12 218 17 110 20 172 79 206 194 8 28 91 680 185 1450 93 770 172 1410
175 1423 10 43 42 47 331 42 148 -3 275 -9 282 -13z"/>
</g>
</svg>
